<mxfile host="app.diagrams.net" modified="2021-11-13T12:18:44.900Z" agent="5.0 (Macintosh; Intel Mac OS X 10_15_7) AppleWebKit/537.36 (KHTML, like Gecko) Chrome/86.0.4240.193 Safari/537.36" etag="JI6rQPgHF96tmRMb3DZg" version="15.7.3" type="github">
  <diagram id="D2PyIQKXI0JBX9Plsr1j" name="Page-1">
    <mxGraphModel dx="1773" dy="536" grid="1" gridSize="10" guides="1" tooltips="1" connect="1" arrows="1" fold="1" page="1" pageScale="1" pageWidth="827" pageHeight="1169" math="0" shadow="0">
      <root>
        <mxCell id="0" />
        <mxCell id="1" parent="0" />
        <mxCell id="lq6GdfVbeA8UE1FtDw94-1" value="" style="html=1;align=center;verticalAlign=top;rounded=1;absoluteArcSize=1;arcSize=20;dashed=1;" vertex="1" parent="1">
          <mxGeometry x="200" y="40" width="260" height="390" as="geometry" />
        </mxCell>
        <mxCell id="lq6GdfVbeA8UE1FtDw94-2" value="&lt;pre&gt;PullMessageService&lt;/pre&gt;" style="text;html=1;strokeColor=none;fillColor=none;align=center;verticalAlign=middle;whiteSpace=wrap;rounded=0;" vertex="1" parent="1">
          <mxGeometry x="300" y="60" width="60" height="30" as="geometry" />
        </mxCell>
        <mxCell id="lq6GdfVbeA8UE1FtDw94-3" value="&lt;pre&gt;executePullRequestLater&lt;/pre&gt;&lt;pre&gt;&lt;pre&gt;executePullRequestImmediately&lt;/pre&gt;&lt;pre&gt;往pullRequestQueue放置拉取任务&lt;/pre&gt;&lt;/pre&gt;" style="rounded=0;whiteSpace=wrap;html=1;" vertex="1" parent="1">
          <mxGeometry x="220" y="110" width="220" height="80" as="geometry" />
        </mxCell>
        <mxCell id="lq6GdfVbeA8UE1FtDw94-5" value="&lt;pre&gt;run&lt;/pre&gt;&lt;pre&gt;死循环，不断从pullRequestQueue&lt;/pre&gt;&lt;pre&gt;中获取PullRequest&lt;/pre&gt;" style="rounded=0;whiteSpace=wrap;html=1;" vertex="1" parent="1">
          <mxGeometry x="220" y="290" width="220" height="80" as="geometry" />
        </mxCell>
        <mxCell id="lq6GdfVbeA8UE1FtDw94-6" value="" style="html=1;align=center;verticalAlign=top;rounded=1;absoluteArcSize=1;arcSize=20;dashed=1;" vertex="1" parent="1">
          <mxGeometry x="530" y="40" width="260" height="390" as="geometry" />
        </mxCell>
        <mxCell id="lq6GdfVbeA8UE1FtDw94-7" value="&lt;pre&gt;pullMessage&lt;/pre&gt;&lt;pre&gt;&lt;br&gt;&lt;/pre&gt;" style="rounded=0;whiteSpace=wrap;html=1;" vertex="1" parent="1">
          <mxGeometry x="550" y="60" width="220" height="80" as="geometry" />
        </mxCell>
        <mxCell id="lq6GdfVbeA8UE1FtDw94-9" value="DefaultMQPushConsumerImpl#start" style="rounded=0;whiteSpace=wrap;html=1;" vertex="1" parent="1">
          <mxGeometry x="-290" y="100" width="220" height="60" as="geometry" />
        </mxCell>
        <mxCell id="lq6GdfVbeA8UE1FtDw94-10" value="MQClientInstance#start" style="rounded=0;whiteSpace=wrap;html=1;" vertex="1" parent="1">
          <mxGeometry x="-290" y="205" width="220" height="60" as="geometry" />
        </mxCell>
        <mxCell id="lq6GdfVbeA8UE1FtDw94-11" value="&lt;pre&gt;RebalanceService#start&lt;/pre&gt;" style="rounded=0;whiteSpace=wrap;html=1;" vertex="1" parent="1">
          <mxGeometry x="-290" y="310" width="220" height="60" as="geometry" />
        </mxCell>
      </root>
    </mxGraphModel>
  </diagram>
</mxfile>
